<svg style="height:312.5px;width:312.5px" viewBox="0 0 312.5 312.5" xmlns="http://www.w3.org/2000/svg"><path d="M312.5 156.398c0 10.033-11.213 18.885-13.279 28.328s5.017 22.427 1.476 31.28-17.706 12.984-23.017 21.246-3.836 22.427-10.919 29.51-21.246 5.311-29.509 10.918-12.098 19.18-21.246 23.017-21.542-3.246-31.28-1.476-18.295 13.28-28.328 13.28-18.886-11.214-28.624-13.28-22.427 5.017-31.28 1.476S83.51 282.99 75.248 277.68s-22.427-3.836-29.509-10.919-5.312-21.246-10.918-29.509-19.181-11.803-23.017-21.246 3.246-21.542 1.475-31.28S0 166.431 0 156.398s11.213-18.886 13.28-28.624-5.313-22.132-1.476-31.28S29.509 83.51 34.82 75.248s3.836-22.427 10.918-29.51 21.246-5.31 29.509-10.917S87.347 15.64 96.494 11.804s21.542 3.246 31.28 1.475S146.364 0 156.398 0s18.885 11.213 28.623 13.28 22.132-5.313 31.28-1.476 12.984 17.705 21.246 23.017 22.427 3.836 29.51 10.918 5.311 21.246 10.918 29.509 19.18 12.099 23.017 21.246-3.246 21.542-1.476 31.28 12.984 18.59 12.984 28.624z" xmlns="http://www.w3.org/2000/svg" fill="#fff"/><path d="M182.89 123.395h-11.765v2.52h11.766v-2.52zM119.186 94.02a1.577 1.577 0 1 0 0-3.154 1.577 1.577 0 0 0 0 3.154zm59.504 37.359h13.865v-2.522h-13.865v2.522zM113.038 94.02a1.576 1.576 0 1 0-.001-3.152 1.576 1.576 0 0 0 0 3.152zM106 86v60.505h100V86H106zm44.118 57.983h-27.732v-5.211c1.226-1.322 2.858-4.142 4.464-7.26l2.85 7.28 3.04-5.674 2.678 3.42 2.184-5.441c3.604 5.313 8.13 10.802 12.516 12.876v.01zm-21.796-15.415a232.742 232.742 0 0 0 3.366-7.264c.96 1.78 2.43 4.385 4.23 7.222l-1.21 3.014-2.366-3.021-2.285 4.267-1.66-4.244-.075.026zm10.411-.329c2.022-1.527 4.07-3.983 5.268-5.539.994 1.299 2.386 3.054 3.72 4.508l-1.352 2.83-2.65-3.229-3.634 3.455c-.465-.68-.916-1.357-1.352-2.025zm11.385 12.88c-2.889-1.754-5.884-5.13-8.56-8.78l1.932-1.836 3.443 4.2 2.69-5.626c.172.143.335.266.494.379v11.664zm0-15.034c-1.445-1.523-3.456-3.999-5.107-6.241l-1.037-1.408-1.009 1.429c-.93 1.323-3.437 4.545-5.582 6.233-2.771-4.494-4.626-8.185-4.67-8.274l-1.215-2.439-1.07 2.504c-2.117 4.946-5.582 12.4-8.04 16.537v-24.478h27.731v16.137zm53.36 17.898h-50.839v-36.555h-32.773v36.555H108.52V99.024h94.958v44.959zm0-47.48H108.52v-7.982h94.958v7.982zm-29.412 23.53h16.387v-2.52h-16.387v2.52zm-2.94-2.52h-11.344v2.52h11.343v-2.52zm14.286 8.403h5.882v-2.521h-5.882v2.52zm-9.665 2.94h-15.965v2.523h15.965v-2.522zm-7.561-5.461h-8.404v2.52h8.404v-2.52zM125.332 94.02a1.577 1.577 0 1 0 0-3.154 1.577 1.577 0 0 0 0 3.154zm64.28 15.088h-9.664v4.203h9.664v-4.203zm-12.604 0h-17.226v4.203h17.226v-4.203z" xmlns="http://www.w3.org/2000/svg" fill="#71691e"/><path d="M73.097 184.883c.41.247.452.535.246.987-.04.042-.04.083-.04.124-1.276 1.727-2.468 3.578-4.072 5.017-2.468 2.22-5.346 2.467-8.348 1.357-.864-.288-1.563-.864-2.139-1.563-1.028-1.11-1.686-2.467-2.138-3.948-.33-1.028-.494-2.097-.576-3.166-.123-2.961.123-5.88 1.028-8.718.576-1.81 1.398-3.496 2.591-5.018 2.632-3.207 6.457-3.454 9.335-2.385 1.193.411 2.18 1.152 3.002 2.139.494.658.823 1.398.987 2.22.124.74-.164 1.275-.905 1.522a4.119 4.119 0 0 1-2.631 0 1.386 1.386 0 0 1-.905-.822c-.165-.288-.288-.576-.453-.823-.493-.781-1.069-1.48-2.015-2.015-.616.411-1.069.946-1.48 1.522-1.11 1.562-1.768 3.33-2.18 5.181-.658 2.838-.863 5.675-.493 8.554.164 1.193.452 2.344.946 3.454.329.7.699 1.357 1.316 1.933.246-.082.493-.164.658-.37.74-.617 1.439-1.275 2.097-1.974.781-.822 1.563-1.645 2.138-2.59.74-1.111 2.961-1.276 4.03-.618zm11.808-4.934c.987.164 1.193.37.987 1.439-.329 1.892-.699 3.866-1.11 5.798a42.11 42.11 0 0 1-.946 3.002c-.206.576-.493 1.193-.905 1.728-1.11 1.727-3.248 2.426-5.099 1.85-.781-.205-1.316-.617-1.81-1.275-.74-.945-1.233-2.097-1.48-3.33-.535-2.386-.37-4.73-.041-7.156.123-.782.535-1.234 1.234-1.316.288-.041.534-.082.74-.082 1.193.04 1.48.37 1.48 1.603 0 1.399 0 2.797.042 4.236.04 1.316.246 2.591.78 3.825.083.329.33.575.535 1.028.247-.37.412-.658.535-.905.37-1.11.74-2.262 1.028-3.372.453-1.85.905-3.701 1.398-5.47.33-1.274.74-1.603 2.015-1.645.206 0 .412 0 .617.042zm11.192-2.756c.124.041.247.247.247.453.041.123-.123.288-.206.329-.41.164-.781.287-1.151.329-.864.082-1.727.123-2.59.205-.248.411-.207.864-.248 1.275-.205 3.372-.37 6.662-.575 9.993-.042.658-.124 1.398-.165 2.056-.041.412-.288.7-.699.782s-.781.082-1.193.082c-.863-.082-1.069-.288-1.069-1.234.082-3.783.206-7.525.247-11.309.041-.452.041-.863.041-1.398h-1.933c-.452 0-.946-.123-1.357-.329-.288-.206-.288-.658 0-.781.37-.124.781-.288 1.11-.37.7-.083 1.44-.124 2.18-.206.041-.37.082-.658.082-.987.083-1.316.124-2.673.206-3.99 0-1.274.37-1.89 1.604-1.973.288-.041.617 0 .904.041.864.165 1.029.37 1.029 1.234-.042 1.028-.083 2.097-.124 3.166-.04.74-.04 1.48-.082 2.262.247.082.452.124.7.124.575 0 1.192-.042 1.767 0 .412 0 .823.123 1.275.246zm8.026.247c1.274.206 1.768.494 3.207 1.686.165.123.288.37.165.576-.124.37-.411.617-.658.905-1.11 1.398-2.303 2.714-3.455 4.153-.904 1.152-1.85 2.385-2.755 3.537.082.781.452 1.357.864 1.891.534.782 1.439 1.029 2.426.74.576-.164 1.11-.246 1.686-.37.288-.04.617 0 .864.124.37.041.74.206.822.7.041.37-.164.616-.452.822-.617.452-1.398.699-2.18.863-2.015.33-4.03.124-6.004-.576-1.07-.37-1.85-1.028-2.344-2.056-1.357-2.508-1.768-5.14-1.07-7.854.741-2.88 2.674-4.524 5.553-5.059 1.151-.164 2.261-.288 3.33-.082zm-4.072 7.114c.535-.452 3.25-3.824 3.66-4.482-1.069-.946-1.686-.946-2.55.041-.164.206-.287.494-.452.7-.617 1.068-.863 2.261-.822 3.495 0 .205.123.329.164.246zm24.105-7.114c.535.165.658.411.535 1.028-.206.946-.453 1.892-.7 2.879-.78 2.92-1.52 5.84-2.302 8.76-.247.78-.494 1.644-.823 2.426-.617 1.439-2.59 2.056-3.824 1.028-.33-.247-.576-.7-.658-1.11-.453-1.193-.782-2.468-1.152-3.66-.123-.33-.247-.618-.411-1.029-.247.535-.411.946-.617 1.357-.411.987-.905 1.933-1.357 2.92-.7 1.81-2.303 1.727-3.454 1.398-.494-.123-.74-.452-.823-.987-.041-.288-.041-.575-.041-.904-.206-3.537-.123-7.074 0-10.61 0-.165.041-.37.041-.494.082-1.07.37-1.398 1.357-1.48.33-.042.658 0 .987.04.74.165.987.412.987 1.234 0 1.48 0 3.085-.04 4.606v.535c.328.041.37-.206.451-.37a32.11 32.11 0 0 0 1.11-2.755c.37-.864.988-1.234 1.851-1.234.33 0 .658.082 1.028.123.494.124.905.494.987 1.11.247 1.316.494 2.632.782 3.99.082.575.123 1.11.37 1.603.452-.082.411-.452.452-.658.494-1.85.946-3.742 1.48-5.592.289-1.07.7-2.098.988-3.085.164-.822.658-1.192 1.398-1.233.411-.042.905.04 1.398.164zm12.755 4.154c.082 1.316.123 2.59.082 3.906-.123 2.468-.247 4.935-.411 7.403v.534a.638.638 0 0 1-.411.535c-.494.247-.987.288-1.522.247-.946-.124-1.152-.412-1.152-1.316-.04-.37 0-.782 0-1.193-.287.123-.452.123-.534.206-.165.123-.33.205-.453.329-1.686 1.398-3.536 1.562-5.551.987-1.604-.453-2.427-1.645-2.714-3.208-.206-1.563.452-2.838 1.768-3.742.452-.33 1.07-.576 1.686-.74 1.727-.535 3.578-.576 5.346-.37.165 0 .411 0 .576.082.164-.823.205-3.496.041-4.647-.123-.576-.165-1.193-.535-1.769-.164.041-.37.041-.534.124-.782.575-1.522 1.11-2.303 1.686-.823.617-1.686.617-2.55.288-.329-.165-.452-.453-.206-.7a.476.476 0 0 1 .206-.287c1.07-1.193 2.385-2.057 3.907-2.673a5.942 5.942 0 0 1 2.673-.247c1.07.164 1.81.699 2.18 1.727.246.946.41 1.85.41 2.838zm-3.372 7.978c0-.576.082-1.11.082-1.769-1.275-.411-2.344-.575-3.331.412-.74.699-1.234 1.603-.823 2.796.7-.247 1.316-.576 2.015-.781.658-.247 1.357-.412 2.057-.658zm16.661-6.169c.123.164.123.411 0 .493a1.565 1.565 0 0 1-.7.33c-1.397.452-2.713 0-3.536-1.193-.329-.33-.534-.74-.781-1.11-.082-.206-.165-.412-.33-.617-.246.205-.287.452-.41.699-.37.987-.658 1.974-.905 3.084-.33 1.81-.7 3.578-1.028 5.387a10.581 10.581 0 0 1-.453 1.81c-.205.781-.534.987-1.357 1.028h-.37c-.863-.041-1.11-.288-1.275-1.11-.205-2.016-.41-3.948-.493-6.005-.082-2.138-.206-4.276-.288-6.456v-.823c0-.205.082-.37.288-.452.617-.247 1.151-.247 1.686 0 .329.082.411.33.411.658.041.74.165 1.48.206 2.22 0 .412 0 .741.04 1.152 0 .124.042.247.165.494.124-.494.247-.823.412-1.193.164-.658.493-1.275.822-1.892.987-1.48 2.714-2.056 4.36-1.439.863.37 1.069.905 1.439 1.686.288.7.575 1.357.863 2.015.288.453.535.864 1.028 1.07.083 0 .124.123.206.164zm13.084 0c.123.164.123.411 0 .493a1.565 1.565 0 0 1-.7.33c-1.398.452-2.714 0-3.536-1.193-.33-.33-.535-.74-.782-1.11-.082-.206-.164-.412-.329-.617-.246.205-.287.452-.41.699-.37.987-.659 1.974-.906 3.084-.329 1.81-.699 3.578-1.028 5.387a10.581 10.581 0 0 1-.452 1.81c-.206.781-.535.987-1.357 1.028h-.37c-.864-.041-1.11-.288-1.275-1.11-.206-2.016-.411-3.948-.494-6.005-.082-2.138-.205-4.276-.287-6.456v-.823c0-.205.082-.37.287-.452.617-.247 1.152-.247 1.687 0 .329.082.41.33.41.658.042.74.165 1.48.206 2.22 0 .412 0 .741.042 1.152 0 .124.04.247.164.494.123-.494.247-.823.411-1.193.165-.658.494-1.275.823-1.892.987-1.48 2.714-2.056 4.359-1.439.864.37 1.07.905 1.44 1.686.287.7.575 1.357.863 2.015.288.453.534.864 1.028 1.07.082 0 .123.123.206.164zm4.447-3.742c.37.123.617.37.617.822 0 .247 0 .494-.041.74-.33 3.62-.37 7.197-.206 10.775.041.699-.205 1.028-.863 1.193-.33.04-.658.082-.987.04-.946-.082-1.316-.41-1.399-1.356-.082-.782-.123-1.563-.164-2.303v-7.485c.041-.576.123-1.11.206-1.645.04-.411.329-.658.699-.781.699-.247 1.439-.247 2.138 0zm1.07-5.1a3.88 3.88 0 0 1-.247 1.933c-.124.411-.33.823-.658 1.11a1.39 1.39 0 0 1-2.098-.04 2.176 2.176 0 0 1-.452-.864c-.247-1.028 0-1.933.781-2.756.453-.452.987-.575 1.563-.658.329-.082.576.083.74.288.247.288.37.658.37.987zm14.111 8.225c.123.453.123.946.165 1.316-.083 2.468-.7 4.647-2.098 6.621-1.645 2.303-3.907 3.413-6.785 3.208-2.22-.124-3.784-1.275-4.565-3.414-.452-1.151-.535-2.344-.452-3.536.164-1.81.617-3.537 1.357-5.182.411-.863.904-1.686 1.521-2.385 1.275-1.398 2.879-1.933 4.647-1.645.987.123 1.892.411 2.797.7 2.015.74 3.043 2.302 3.413 4.317zm-6.292 7.937c1.686-2.262 2.468-4.811 2.097-7.567-.164-1.151-.658-2.18-1.603-3.002-.658.041-1.193.124-1.728.206-.082.082-.164.205-.288.329-1.439 2.55-2.056 5.346-1.768 8.266.082.822.37 1.562.823 2.262.246.329.41.658.863.74.7-.165 1.234-.658 1.604-1.234zm19.17-7.32c.123.164.123.411 0 .493a1.565 1.565 0 0 1-.7.33c-1.397.452-2.713 0-3.536-1.193-.329-.33-.534-.74-.781-1.11-.082-.206-.165-.412-.33-.617-.246.205-.287.452-.41.699-.37.987-.658 1.974-.905 3.084-.329 1.81-.7 3.578-1.028 5.387a10.581 10.581 0 0 1-.453 1.81c-.205.781-.534.987-1.357 1.028h-.37c-.863-.041-1.11-.288-1.275-1.11-.205-2.016-.41-3.948-.493-6.005-.082-2.138-.206-4.276-.288-6.456v-.823c0-.205.082-.37.288-.452.617-.247 1.151-.247 1.686 0 .329.082.411.33.411.658.041.74.165 1.48.206 2.22 0 .412 0 .741.041 1.152 0 .124.041.247.165.494.123-.494.246-.823.41-1.193.165-.658.494-1.275.823-1.892.987-1.48 2.714-2.056 4.36-1.439.863.37 1.069.905 1.439 1.686.288.7.575 1.357.863 2.015.288.453.535.864 1.028 1.07.083 0 .124.123.206.164zm.952-.576c.206-3.619.411-7.402.658-11.144.082-1.193.494-1.563 1.686-1.563a3.6 3.6 0 0 1 .658.082c.658.124.946.411.946 1.11 0 1.44-.041 2.88-.082 4.319-.083 2.22-.247 4.441-.33 6.703l-.37 7.813c-.04.823 0 1.686 0 2.509-.04.576-.205.822-.74.946a2.738 2.738 0 0 1-1.521-.041c-.494-.083-.782-.37-.864-.905-.04-.37-.04-.781-.04-1.193v-8.636zm18.841-.04c.123.452.123.945.165 1.315-.083 2.468-.7 4.647-2.098 6.621-1.645 2.303-3.907 3.413-6.785 3.208-2.221-.124-3.784-1.275-4.565-3.414-.452-1.151-.535-2.344-.452-3.536.164-1.81.616-3.537 1.357-5.182.41-.863.904-1.686 1.521-2.385 1.275-1.398 2.879-1.933 4.647-1.645.987.123 1.892.411 2.797.7 2.015.74 3.043 2.302 3.413 4.317zm-6.292 7.936c1.686-2.262 2.467-4.811 2.097-7.567-.164-1.151-.658-2.18-1.603-3.002-.658.041-1.193.124-1.728.206-.082.082-.164.205-.288.329-1.439 2.55-2.056 5.346-1.768 8.266.082.822.37 1.562.823 2.262.246.329.41.658.863.74.7-.165 1.234-.658 1.604-1.234zm21.35-13.242c.493.206.616.617.329 1.07-.124.287-.288.493-.453.74a85.91 85.91 0 0 0-6.539 11.309c-.246.575-.575 1.11-.822 1.686-.452.781-1.151 1.192-2.056 1.192-.247 0-.576.042-.864 0-1.028-.123-1.44-.41-1.645-1.48-.247-1.275-.493-2.59-.699-3.866a300.542 300.542 0 0 1-1.151-6.456 27.017 27.017 0 0 1-.37-2.714c-.083-.823.205-1.11 1.028-1.275a4.3 4.3 0 0 1 1.028 0c.946.04 1.233.37 1.398 1.357.493 2.59.987 5.223 1.44 7.813.04.165.082.33.205.74.288-.493.493-.74.658-1.027 1.521-2.386 3.002-4.73 4.524-7.074.246-.411.534-.74.74-1.069.781-1.234 2.303-1.234 3.249-.946zm8.806-.041c1.275.206 1.769.494 3.208 1.686.164.123.288.37.164.576-.123.37-.41.617-.658.905-1.11 1.398-2.302 2.714-3.454 4.153-.905 1.152-1.85 2.385-2.755 3.537.082.781.452 1.357.863 1.891.535.782 1.44 1.029 2.427.74.575-.164 1.11-.246 1.686-.37.288-.04.617 0 .863.124.37.041.74.206.823.7.04.37-.165.616-.453.822-.616.452-1.398.699-2.18.863-2.014.33-4.03.124-6.003-.576-1.07-.37-1.85-1.028-2.344-2.056-1.357-2.508-1.769-5.14-1.07-7.854.74-2.88 2.674-4.524 5.552-5.059 1.152-.164 2.262-.288 3.331-.082zm-4.071 7.114c.535-.452 3.249-3.824 3.66-4.482-1.07-.946-1.686-.946-2.55.041-.164.206-.288.494-.452.7-.617 1.068-.864 2.261-.822 3.495 0 .205.123.329.164.246zm20.527-1.151c.123.164.123.411 0 .493a1.565 1.565 0 0 1-.7.33c-1.397.452-2.713 0-3.536-1.193-.329-.33-.534-.74-.781-1.11-.082-.206-.165-.412-.33-.617-.246.205-.287.452-.41.699-.37.987-.658 1.974-.905 3.084-.329 1.81-.7 3.578-1.028 5.387a10.581 10.581 0 0 1-.453 1.81c-.205.781-.534.987-1.357 1.028h-.37c-.863-.041-1.11-.288-1.275-1.11-.205-2.016-.41-3.948-.493-6.005-.082-2.138-.206-4.276-.288-6.456v-.823c0-.205.082-.37.288-.452.617-.247 1.151-.247 1.686 0 .329.082.411.33.411.658.041.74.165 1.48.206 2.22 0 .412 0 .741.041 1.152 0 .124.041.247.165.494.123-.494.246-.823.41-1.193.165-.658.494-1.275.823-1.892.987-1.48 2.714-2.056 4.36-1.439.863.37 1.069.905 1.439 1.686.288.7.575 1.357.863 2.015.288.453.535.864 1.028 1.07.083 0 .124.123.206.164z" fill="#2c9765"/><path d="M81.595 212.298h6.024v-2.395H76.907v.782h9.855v.907H76v-2.596h12.526v4.21h-6.023V225h-.908v-12.703zm-1.688.907H76v-.907h4.814v13.433h2.52v-11.745h.908v12.678h-4.335v-13.459zm10.409-4.184h4.385v5.822h-.932v-4.89h-2.546v15.778h2.546v-4.864h.932v5.797h-4.385v-17.643zm1.739 1.664h.907v4.94h7.688v-6.604h.882v7.486h-9.477v-5.822zm12.174-.731h-.857v6.628h-.908v-7.56h2.647v17.642h-.882v-16.71zm-3.58 10.107h-7.687v5.066h-.932v-5.999h9.502v6.603h.932v-7.435H92.03v-.882h11.342v9.25h-2.722v-6.603zm8.47 5.04h1.108l.882-2.117 6.578.025 1.614 3.655 4.637-.025-7.94-17.618h-1.612l-7.89 17.618h4.916l.857-2.017h5.015l-.378-.856h-5.192l-.806 1.99h-3l6.982-15.878h.605l7.006 15.879h-2.671l-1.613-3.605h-7.813zm2.998-4.436 3.075-7.334 5.167 11.745h1.033l-6.2-13.812-4.536 10.183h7.309l-2.773-6.125-1.915 4.613h.983l.932-2.294 1.437 3.024h-4.512zm19.433-8.367h6.023v-2.395h-10.711v.782h9.855v.907h-10.763v-2.596h12.527v4.21h-6.024V225h-.907v-12.703zm-1.689.907h-3.907v-.907h4.814v13.433h2.52v-11.745h.908v12.678h-4.335v-13.459zm29.438 13.459c-2.444 0-4.31-.63-5.545-1.89-1.21-1.21-1.84-3-1.84-5.117v-10.61h4.285v10.61c0 1.916.933 2.722 2.974 2.722 1.991 0 3.075-.983 3.075-2.722v-10.61h2.596v10.61c0 1.336-.353 2.596-1.033 3.504-.908 1.235-2.344 1.814-4.562 1.814-1.286 0-2.319-.176-3.1-.554-1.588-.731-2.546-2.37-2.546-4.764v-8.998h.908v8.998c0 2.848 1.638 4.411 4.738 4.411s4.688-1.563 4.688-4.41v-9.704h-.781v9.703c0 2.218-1.488 3.63-3.983 3.63-2.52 0-3.856-1.286-3.856-3.63v-9.703h-2.495v9.703c0 4.008 2.218 6.1 6.477 6.1 2.218 0 3.73-.53 4.764-1.613s1.588-2.647 1.588-4.487v-10.61h.907v10.61c0 2.117-.655 3.882-1.865 5.117-1.21 1.26-3 1.89-5.394 1.89zm9.049-17.643h2.646v15.954h-.907V209.93h-.832v15.828h2.545V209.02h.908v17.643h-4.36v-17.643zm25.38 17.643a8.304 8.304 0 0 1-4.36-1.21c-2.722-1.588-4.436-4.587-4.436-7.586a8.7 8.7 0 0 1 1.21-4.436c1.613-2.798 4.385-4.386 7.586-4.386 2.193 0 4.31.832 5.923 2.32.05.024.126.075.202.15l.176.202-.63.655-.353-.353c-1.437-1.335-3.327-2.066-5.318-2.066a7.668 7.668 0 0 0-3.932 1.058 7.928 7.928 0 0 0-3.957 6.856c0 1.411.353 2.722 1.059 3.932a7.887 7.887 0 0 0 6.83 3.957c1.714 0 3.024-.48 5.167-1.865v-5.797h-5.52v-.908h6.402v7.183l-.177.152c-2.243 1.537-3.856 2.142-5.872 2.142zm0-1.714a6.933 6.933 0 0 1-3.529-.958c-2.218-1.285-3.579-3.604-3.579-6.124 0-1.286.328-2.495.958-3.604 1.286-2.193 3.554-3.504 6.15-3.504 1.437 0 2.823.454 4.159 1.336l.655.504.328.328-1.815 1.966-.807-.63a4.233 4.233 0 0 0-2.52-.807c-.756 0-1.487.202-2.168.58-1.386.806-2.218 2.218-2.218 3.83 0 .757.202 1.488.605 2.168a4.294 4.294 0 0 0 3.781 2.218c.63 0 1.21-.126 1.739-.403v-.403h-2.092v-2.571h4.713v4.486l-.58.454c-1.134.781-2.293 1.134-3.78 1.134zm0-13.282a6.083 6.083 0 0 0-3.1.831 6.203 6.203 0 0 0-3.1 5.369c0 1.109.277 2.142.832 3.075a6.203 6.203 0 0 0 5.368 3.1c1.235 0 2.344-.328 3.276-.958l.177-.151v-3.15h-2.899v.755h2.092v1.89l-.252.127c-.831.403-1.613.605-2.394.605-.907 0-1.79-.252-2.621-.731-1.689-.983-2.672-2.621-2.672-4.562 0-.958.227-1.84.706-2.672.932-1.613 2.646-2.621 4.587-2.621 1.084 0 2.117.328 3.05.958l.176.126.605-.656-.202-.15c-1.083-.782-2.293-1.185-3.629-1.185zm16.861 14.996c-2.444 0-4.31-.63-5.544-1.89-1.21-1.21-1.84-3-1.84-5.117v-10.61h4.284v10.61c0 1.916.933 2.722 2.974 2.722 1.992 0 3.075-.983 3.075-2.722v-10.61h2.596v10.61c0 1.336-.353 2.596-1.033 3.504-.907 1.235-2.344 1.814-4.562 1.814-1.285 0-2.319-.176-3.1-.554-1.588-.731-2.546-2.37-2.546-4.764v-8.998h.908v8.998c0 2.848 1.638 4.411 4.738 4.411s4.688-1.563 4.688-4.41v-9.704h-.781v9.703c0 2.218-1.487 3.63-3.983 3.63-2.52 0-3.856-1.286-3.856-3.63v-9.703h-2.495v9.703c0 4.008 2.218 6.1 6.477 6.1 2.218 0 3.73-.53 4.764-1.613s1.588-2.647 1.588-4.487v-10.61h.907v10.61c0 2.117-.655 3.882-1.865 5.117-1.21 1.26-3 1.89-5.394 1.89zm16.433-1.613h.908l-.025-7.334 5.368-7.788h.983l-5.47 7.838v7.99h-2.595l.025-7.99-6.125-8.746h-1.109l6.276 9.023v8.62h4.436v-8.62l6.301-9.023h-3.176l-5.797 8.393v7.637zm3.705-16.03-4.209 6.175-3.73-5.267h.983l2.823 3.982.554-.807-2.898-4.083h-3.176l5.016 7.133.428.655 5.318-7.788h-1.109z" fill="#5d272e"/></svg>